:FULLY-SPECIFIED
:FORCE-ALL-JOINTS-BE-3DOF
:DEGREES
324
root 9.73391 16.3704 9.21134 7.17277 9.55349 4.34156
lfemur 24.4916 4.47214 -22.0596
ltibia -1.06019e-14 0 0
lfoot -6.55974 -4.98989 0
ltoes -13.9893 0 0
rfemur -42.952 1.68267 13.1711
rtibia 35.0619 0 0
rfoot -8.11382 -2.35111 0
rtoes -26.7017 0 0
lowerback -7.91915 -4.79703 -6.36237
upperback -1.10209 -5.90514 1.79877
thorax 4.11587 -3.04785 4.73054
lowerneck -19.3081 -5.24894 -13.0975
upperneck 21.3544 -6.71295 13.1264
head 11.0094 -2.62492 5.98548
lclavicle 5.67282e-14 -1.82882e-14 0
lhumerus -22.2729 -40.205 99.0025
lradius 41.2463 0 0
lwrist 10.0089 0 0
lhand -5.38833 -24.4227 0
lfingers 7.12502 0 0
lthumb 20.4203 4.52353 0
rclavicle 5.67282e-14 -1.82882e-14 0
rhumerus -50.7854 5.027 -82.7518
rradius 30.5593 0 0
rwrist -16.0913 0 0
rhand -29.0293 -23.421 0
rfingers 7.12502 0 0
rthumb -2.37999 -53.3873 0
325
root 9.71446 16.357 9.40526 7.03589 9.62955 4.06667
lfemur 25.2445 4.60685 -21.3812
ltibia -2.22639e-14 0 0
lfoot -5.61253 -5.23758 0
ltoes -15.9721 0 0
rfemur -42.9554 1.41571 13.8219
rtibia 36.0984 0 0
rfoot -5.89992 -1.43473 0
rtoes -25.9582 0 0
lowerback -7.84496 -4.75946 -6.09206
upperback -1.11204 -5.88748 1.8652
thorax 4.04119 -3.033 4.65889
lowerneck -19.2679 -5.23091 -13.2079
upperneck 21.2002 -6.68494 13.2864
head 10.9512 -2.60437 6.0651
lclavicle 5.91136e-14 -2.46493e-14 0
lhumerus -22.9838 -40.1631 99.6052
lradius 41.1032 0 0
lwrist 9.53411 0 0
lhand -5.41681 -24.6079 0
lfingers 7.12502 0 0
lthumb 20.3929 4.34126 0
rclavicle 5.91136e-14 -2.46493e-14 0
rhumerus -50.8726 5.02672 -82.7013
rradius 30.5771 0 0
rwrist -16.2647 0 0
rhand -29.1207 -23.2765 0
rfingers 7.12502 0 0
rthumb -2.46829 -53.2419 0
326
root 9.6884 16.3582 9.5961 6.92878 9.51422 3.55226
lfemur 25.7742 4.9156 -20.4327
ltibia -4.77085e-15 0 0
lfoot -3.66324 -4.90226 0
ltoes -16.3105 0 0
rfemur -42.7564 1.57402 14.7301
rtibia 37.0008 0 0
rfoot -5.97882 -1.10659 0
rtoes -24.3084 0 0
lowerback -7.85783 -4.70266 -5.69419
upperback -1.13704 -5.85118 2.0171
thorax 3.99465 -3.00892 4.60084
lowerneck -19.275 -5.16255 -13.1373
upperneck 21.1694 -6.60067 13.2678
head 10.9246 -2.56185 6.05786
lclavicle 5.46989e-14 -1.85532e-14 0
lhumerus -23.7228 -39.296 100.063
lradius 40.4522 0 0
lwrist 9.26101 0 0
lhand -5.98303 -24.7265 0
lfingers 7.12502 0 0
lthumb 19.8483 4.27536 0
rclavicle 5.46989e-14 -1.85532e-14 0
rhumerus -50.5643 5.08341 -82.5957
rradius 30.2956 0 0
rwrist -15.8249 0 0
rhand -28.3981 -23.87 0
rfingers 7.12502 0 0
rthumb -1.77035 -53.8367 0
327
root 9.66234 16.3594 9.78694 6.82168 9.39888 3.03785
lfemur 26.3039 5.22435 -19.4841
ltibia 1.27222e-14 0 0
lfoot -1.71395 -4.56693 0
ltoes -16.6489 0 0
rfemur -42.5574 1.73232 15.6383
rtibia 37.9033 0 0
rfoot -6.05772 -0.778445 0
rtoes -22.6585 0 0
lowerback -7.87069 -4.64587 -5.29632
upperback -1.16204 -5.81488 2.169
thorax 3.9481 -2.98484 4.54279
lowerneck -19.282 -5.0942 -13.0668
upperneck 21.1387 -6.51639 13.2492
head 10.898 -2.51933 6.05062
lclavicle 5.02842e-14 -1.24572e-14 0
lhumerus -24.4618 -38.4289 100.521
lradius 39.8011 0 0
lwrist 8.98792 0 0
lhand -6.54924 -24.8451 0
lfingers 7.12502 0 0
lthumb 19.3037 4.20946 0
rclavicle 5.02842e-14 -1.24572e-14 0
rhumerus -50.256 5.1401 -82.49
rradius 30.0141 0 0
rwrist -15.3851 0 0
rhand -27.6754 -24.4636 0
rfingers 7.12502 0 0
rthumb -1.07242 -54.4314 0
328
root 9.63629 16.3606 9.97778 6.71457 9.28355 2.52344
lfemur 26.8336 5.53309 -18.5356
ltibia 3.02152e-14 0 0
lfoot 0.235345 -4.23161 0
ltoes -16.9873 0 0
rfemur -42.3584 1.89062 16.5465
rtibia 38.8058 0 0
rfoot -6.13663 -0.450303 0
rtoes -21.0087 0 0
lowerback -7.88356 -4.58907 -4.89844
upperback -1.18704 -5.77858 2.3209
thorax 3.90156 -2.96076 4.48474
lowerneck -19.289 -5.02584 -12.9962
upperneck 21.1079 -6.43211 13.2307
head 10.8714 -2.47682 6.04338
lclavicle 4.58695e-14 -6.3611e-15 0
lhumerus -25.2008 -37.5618 100.979
lradius 39.1501 0 0
lwrist 8.71482 0 0
lhand -7.11545 -24.9637 0
lfingers 7.12502 0 0
lthumb 18.7591 4.14357 0
rclavicle 4.58695e-14 -6.3611e-15 0
rhumerus -49.9477 5.19679 -82.3844
rradius 29.7326 0 0
rwrist -14.9453 0 0
rhand -26.9528 -25.0571 0
rfingers 7.12502 0 0
rthumb -0.37448 -55.0262 0
329
root 9.61023 16.3618 10.1686 6.60746 9.16821 2.00903
lfemur 27.3633 5.84184 -17.587
ltibia 4.77083e-14 0 0
lfoot 2.18464 -3.89629 0
ltoes -17.3258 0 0
rfemur -42.1593 2.04893 17.4548
rtibia 39.7082 0 0
rfoot -6.21553 -0.12216 0
rtoes -19.3589 0 0
lowerback -7.89642 -4.53228 -4.50057
upperback -1.21205 -5.74229 2.4728
thorax 3.85501 -2.93668 4.42668
lowerneck -19.2961 -4.95748 -12.9256
upperneck 21.0771 -6.34784 13.2121
head 10.8448 -2.4343 6.03613
lclavicle 4.14549e-14 -2.65033e-16 0
lhumerus -25.9398 -36.6947 101.436
lradius 38.4991 0 0
lwrist 8.44172 0 0
lhand -7.68167 -25.0822 0
lfingers 7.12502 0 0
lthumb 18.2146 4.07767 0
rclavicle 4.14549e-14 -2.65033e-16 0
rhumerus -49.6395 5.25347 -82.2787
rradius 29.4512 0 0
rwrist -14.5055 0 0
rhand -26.2302 -25.6506 0
rfingers 7.12502 0 0
rthumb 0.323457 -55.621 0
330
root 9.58417 16.363 10.3595 6.50036 9.05288 1.49462
lfemur 27.893 6.15059 -16.6384
ltibia 6.52013e-14 0 0
lfoot 4.13393 -3.56096 0
ltoes -17.6642 0 0
rfemur -41.9603 2.20724 18.363
rtibia 40.6106 0 0
rfoot -6.29443 0.205983 0
rtoes -17.709 0 0
lowerback -7.90929 -4.47548 -4.1027
upperback -1.23705 -5.70599 2.6247
thorax 3.80846 -2.9126 4.36863
lowerneck -19.3031 -4.88913 -12.8551
upperneck 21.0464 -6.26356 13.1935
head 10.8182 -2.39178 6.02889
lclavicle 3.70402e-14 5.83103e-15 0
lhumerus -26.6788 -35.8276 101.894
lradius 37.848 0 0
lwrist 8.16863 0 0
lhand -8.24789 -25.2008 0
lfingers 7.12502 0 0
lthumb 17.67 4.01177 0
rclavicle 3.70402e-14 5.83103e-15 0
rhumerus -49.3312 5.31016 -82.1731
rradius 29.1697 0 0
rwrist -14.0657 0 0
rhand -25.5075 -26.2442 0
rfingers 7.12502 0 0
rthumb 1.02139 -56.2157 0
331
root 9.55811 16.3642 10.5503 6.39325 8.93754 0.980213
lfemur 28.4227 6.45934 -15.6899
ltibia 8.26944e-14 0 0
lfoot 6.08322 -3.22564 0
ltoes -18.0026 0 0
rfemur -41.7613 2.36554 19.2712
rtibia 41.5131 0 0
rfoot -6.37333 0.534125 0
rtoes -16.0592 0 0
lowerback -7.92215 -4.41869 -3.70483
upperback -1.26205 -5.66969 2.7766
thorax 3.76192 -2.88852 4.31058
lowerneck -19.3102 -4.82077 -12.7845
upperneck 21.0156 -6.17929 13.1749
head 10.7916 -2.34926 6.02165
lclavicle 3.26255e-14 1.19271e-14 0
lhumerus -27.4178 -34.9605 102.352
lradius 37.197 0 0
lwrist 7.89553 0 0
lhand -8.8141 -25.3194 0
lfingers 7.12502 0 0
lthumb 17.1254 3.94587 0
rclavicle 3.26255e-14 1.19271e-14 0
rhumerus -49.0229 5.36685 -82.0674
rradius 28.8882 0 0
rwrist -13.6259 0 0
rhand -24.7849 -26.8377 0
rfingers 7.12502 0 0
rthumb 1.71933 -56.8105 0
332
root 9.53671 16.3937 10.7203 6.33632 9.27328 0.803366
lfemur 26.1124 6.61472 -15.0585
ltibia 4.83732 0 0
lfoot 6.66441 -3.23584 0
ltoes -16.7743 0 0
rfemur -41.0255 2.15619 19.7287
rtibia 41.6012 0 0
rfoot -7.02717 0.662857 0
rtoes -15.7464 0 0
lowerback -7.76875 -4.48319 -3.62669
upperback -1.3016 -5.76759 2.83742
thorax 3.64442 -2.93437 4.33192
lowerneck -19.4157 -4.86189 -12.737
upperneck 21.0732 -6.244 13.1659
head 10.8412 -2.37226 6.00194
lclavicle 2.76197e-14 6.49365e-15 0
lhumerus -27.6272 -33.5267 102.335
lradius 35.9252 0 0
lwrist 7.3095 0 0
lhand -9.17948 -25.3717 0
lfingers 7.12502 0 0
lthumb 16.7736 3.92193 0
rclavicle 2.76197e-14 6.49365e-15 0
rhumerus -48.7528 5.27688 -81.9426
rradius 28.9791 0 0
rwrist -13.5209 0 0
rhand -25.2181 -26.7853 0
rfingers 7.12502 0 0
rthumb 1.30097 -56.7591 0
333
root 9.51531 16.4232 10.8904 6.27939 9.60903 0.626518
lfemur 23.8021 6.7701 -14.4271
ltibia 9.67463 0 0
lfoot 7.24559 -3.24604 0
ltoes -15.5461 0 0
rfemur -40.2897 1.94684 20.1862
rtibia 41.6892 0 0
rfoot -7.68102 0.79159 0
rtoes -15.4336 0 0
lowerback -7.61535 -4.54769 -3.54854
upperback -1.34114 -5.86548 2.89824
thorax 3.52691 -2.98022 4.35327
lowerneck -19.5213 -4.90301 -12.6894
upperneck 21.1308 -6.3087 13.1569
head 10.8909 -2.39525 5.98224
lclavicle 2.26138e-14 1.0602e-15 0
lhumerus -27.8366 -32.0928 102.317
lradius 34.6534 0 0
lwrist 6.72348 0 0
lhand -9.54487 -25.4241 0
lfingers 7.12502 0 0
lthumb 16.4217 3.898 0
rclavicle 2.26138e-14 1.0602e-15 0
rhumerus -48.4826 5.18691 -81.8177
rradius 29.0701 0 0
rwrist -13.4159 0 0
rhand -25.6512 -26.733 0
rfingers 7.12502 0 0
rthumb 0.882614 -56.7076 0
